<svg xmlns="http://www.w3.org/2000/svg" width="160" height="160">
            <rect x="0" y="0" width="100%" height="100%" fill="black" />
            <g visibility="hidden"><set attributeName="visibility" to="visible" begin="0ms" dur="200ms" fill="freeze" /><svg xmlns="http://www.w3.org/2000/svg" width="160" height="160">
<rect x="0" y="0" width="16" height="16" fill="white" />
<rect x="16" y="0" width="16" height="16" fill="black" />
<rect x="32" y="0" width="16" height="16" fill="white" />
<rect x="48" y="0" width="16" height="16" fill="black" />
<rect x="64" y="0" width="16" height="16" fill="white" />
<rect x="80" y="0" width="16" height="16" fill="white" />
<rect x="96" y="0" width="16" height="16" fill="white" />
<rect x="112" y="0" width="16" height="16" fill="white" />
<rect x="128" y="0" width="16" height="16" fill="white" />
<rect x="144" y="0" width="16" height="16" fill="black" />
<rect x="0" y="16" width="16" height="16" fill="white" />
<rect x="16" y="16" width="16" height="16" fill="white" />
<rect x="32" y="16" width="16" height="16" fill="white" />
<rect x="48" y="16" width="16" height="16" fill="white" />
<rect x="64" y="16" width="16" height="16" fill="black" />
<rect x="80" y="16" width="16" height="16" fill="white" />
<rect x="96" y="16" width="16" height="16" fill="white" />
<rect x="112" y="16" width="16" height="16" fill="white" />
<rect x="128" y="16" width="16" height="16" fill="white" />
<rect x="144" y="16" width="16" height="16" fill="white" />
<rect x="0" y="32" width="16" height="16" fill="white" />
<rect x="16" y="32" width="16" height="16" fill="black" />
<rect x="32" y="32" width="16" height="16" fill="white" />
<rect x="48" y="32" width="16" height="16" fill="white" />
<rect x="64" y="32" width="16" height="16" fill="white" />
<rect x="80" y="32" width="16" height="16" fill="white" />
<rect x="96" y="32" width="16" height="16" fill="white" />
<rect x="112" y="32" width="16" height="16" fill="white" />
<rect x="128" y="32" width="16" height="16" fill="black" />
<rect x="144" y="32" width="16" height="16" fill="black" />
<rect x="0" y="48" width="16" height="16" fill="white" />
<rect x="16" y="48" width="16" height="16" fill="white" />
<rect x="32" y="48" width="16" height="16" fill="white" />
<rect x="48" y="48" width="16" height="16" fill="black" />
<rect x="64" y="48" width="16" height="16" fill="black" />
<rect x="80" y="48" width="16" height="16" fill="black" />
<rect x="96" y="48" width="16" height="16" fill="black" />
<rect x="112" y="48" width="16" height="16" fill="black" />
<rect x="128" y="48" width="16" height="16" fill="white" />
<rect x="144" y="48" width="16" height="16" fill="white" />
<rect x="0" y="64" width="16" height="16" fill="white" />
<rect x="16" y="64" width="16" height="16" fill="black" />
<rect x="32" y="64" width="16" height="16" fill="black" />
<rect x="48" y="64" width="16" height="16" fill="white" />
<rect x="64" y="64" width="16" height="16" fill="black" />
<rect x="80" y="64" width="16" height="16" fill="white" />
<rect x="96" y="64" width="16" height="16" fill="black" />
<rect x="112" y="64" width="16" height="16" fill="white" />
<rect x="128" y="64" width="16" height="16" fill="white" />
<rect x="144" y="64" width="16" height="16" fill="black" />
<rect x="0" y="80" width="16" height="16" fill="black" />
<rect x="16" y="80" width="16" height="16" fill="black" />
<rect x="32" y="80" width="16" height="16" fill="white" />
<rect x="48" y="80" width="16" height="16" fill="black" />
<rect x="64" y="80" width="16" height="16" fill="white" />
<rect x="80" y="80" width="16" height="16" fill="white" />
<rect x="96" y="80" width="16" height="16" fill="black" />
<rect x="112" y="80" width="16" height="16" fill="white" />
<rect x="128" y="80" width="16" height="16" fill="white" />
<rect x="144" y="80" width="16" height="16" fill="white" />
<rect x="0" y="96" width="16" height="16" fill="black" />
<rect x="16" y="96" width="16" height="16" fill="white" />
<rect x="32" y="96" width="16" height="16" fill="white" />
<rect x="48" y="96" width="16" height="16" fill="white" />
<rect x="64" y="96" width="16" height="16" fill="black" />
<rect x="80" y="96" width="16" height="16" fill="white" />
<rect x="96" y="96" width="16" height="16" fill="white" />
<rect x="112" y="96" width="16" height="16" fill="black" />
<rect x="128" y="96" width="16" height="16" fill="white" />
<rect x="144" y="96" width="16" height="16" fill="white" />
<rect x="0" y="112" width="16" height="16" fill="black" />
<rect x="16" y="112" width="16" height="16" fill="black" />
<rect x="32" y="112" width="16" height="16" fill="white" />
<rect x="48" y="112" width="16" height="16" fill="white" />
<rect x="64" y="112" width="16" height="16" fill="black" />
<rect x="80" y="112" width="16" height="16" fill="black" />
<rect x="96" y="112" width="16" height="16" fill="white" />
<rect x="112" y="112" width="16" height="16" fill="white" />
<rect x="128" y="112" width="16" height="16" fill="white" />
<rect x="144" y="112" width="16" height="16" fill="black" />
<rect x="0" y="128" width="16" height="16" fill="black" />
<rect x="16" y="128" width="16" height="16" fill="white" />
<rect x="32" y="128" width="16" height="16" fill="white" />
<rect x="48" y="128" width="16" height="16" fill="white" />
<rect x="64" y="128" width="16" height="16" fill="black" />
<rect x="80" y="128" width="16" height="16" fill="white" />
<rect x="96" y="128" width="16" height="16" fill="white" />
<rect x="112" y="128" width="16" height="16" fill="white" />
<rect x="128" y="128" width="16" height="16" fill="white" />
<rect x="144" y="128" width="16" height="16" fill="black" />
<rect x="0" y="144" width="16" height="16" fill="black" /><rect x="16" y="144" width="16" height="16" fill="white" /><rect x="32" y="144" width="16" height="16" fill="black" /><rect x="48" y="144" width="16" height="16" fill="white" /><rect x="64" y="144" width="16" height="16" fill="white" /><rect x="80" y="144" width="16" height="16" fill="white" /><rect x="96" y="144" width="16" height="16" fill="white" /><rect x="112" y="144" width="16" height="16" fill="white" /><rect x="128" y="144" width="16" height="16" fill="white" /><rect x="144" y="144" width="16" height="16" fill="black" /></svg><set attributeName="visibility" to="visible" begin="200ms" dur="400ms" fill="freeze" /><svg xmlns="http://www.w3.org/2000/svg" width="160" height="160">
<rect x="0" y="0" width="16" height="16" fill="white" />
<rect x="16" y="0" width="16" height="16" fill="black" />
<rect x="32" y="0" width="16" height="16" fill="black" />
<rect x="48" y="0" width="16" height="16" fill="black" />
<rect x="64" y="0" width="16" height="16" fill="white" />
<rect x="80" y="0" width="16" height="16" fill="white" />
<rect x="96" y="0" width="16" height="16" fill="white" />
<rect x="112" y="0" width="16" height="16" fill="white" />
<rect x="128" y="0" width="16" height="16" fill="white" />
<rect x="144" y="0" width="16" height="16" fill="black" />
<rect x="0" y="16" width="16" height="16" fill="white" />
<rect x="16" y="16" width="16" height="16" fill="black" />
<rect x="32" y="16" width="16" height="16" fill="white" />
<rect x="48" y="16" width="16" height="16" fill="black" />
<rect x="64" y="16" width="16" height="16" fill="black" />
<rect x="80" y="16" width="16" height="16" fill="white" />
<rect x="96" y="16" width="16" height="16" fill="white" />
<rect x="112" y="16" width="16" height="16" fill="white" />
<rect x="128" y="16" width="16" height="16" fill="black" />
<rect x="144" y="16" width="16" height="16" fill="white" />
<rect x="0" y="32" width="16" height="16" fill="black" />
<rect x="16" y="32" width="16" height="16" fill="black" />
<rect x="32" y="32" width="16" height="16" fill="white" />
<rect x="48" y="32" width="16" height="16" fill="white" />
<rect x="64" y="32" width="16" height="16" fill="white" />
<rect x="80" y="32" width="16" height="16" fill="white" />
<rect x="96" y="32" width="16" height="16" fill="black" />
<rect x="112" y="32" width="16" height="16" fill="white" />
<rect x="128" y="32" width="16" height="16" fill="black" />
<rect x="144" y="32" width="16" height="16" fill="black" />
<rect x="0" y="48" width="16" height="16" fill="white" />
<rect x="16" y="48" width="16" height="16" fill="white" />
<rect x="32" y="48" width="16" height="16" fill="white" />
<rect x="48" y="48" width="16" height="16" fill="black" />
<rect x="64" y="48" width="16" height="16" fill="black" />
<rect x="80" y="48" width="16" height="16" fill="white" />
<rect x="96" y="48" width="16" height="16" fill="black" />
<rect x="112" y="48" width="16" height="16" fill="white" />
<rect x="128" y="48" width="16" height="16" fill="black" />
<rect x="144" y="48" width="16" height="16" fill="white" />
<rect x="0" y="64" width="16" height="16" fill="white" />
<rect x="16" y="64" width="16" height="16" fill="black" />
<rect x="32" y="64" width="16" height="16" fill="white" />
<rect x="48" y="64" width="16" height="16" fill="white" />
<rect x="64" y="64" width="16" height="16" fill="black" />
<rect x="80" y="64" width="16" height="16" fill="white" />
<rect x="96" y="64" width="16" height="16" fill="black" />
<rect x="112" y="64" width="16" height="16" fill="white" />
<rect x="128" y="64" width="16" height="16" fill="white" />
<rect x="144" y="64" width="16" height="16" fill="black" />
<rect x="0" y="80" width="16" height="16" fill="white" />
<rect x="16" y="80" width="16" height="16" fill="black" />
<rect x="32" y="80" width="16" height="16" fill="black" />
<rect x="48" y="80" width="16" height="16" fill="black" />
<rect x="64" y="80" width="16" height="16" fill="black" />
<rect x="80" y="80" width="16" height="16" fill="white" />
<rect x="96" y="80" width="16" height="16" fill="black" />
<rect x="112" y="80" width="16" height="16" fill="black" />
<rect x="128" y="80" width="16" height="16" fill="black" />
<rect x="144" y="80" width="16" height="16" fill="black" />
<rect x="0" y="96" width="16" height="16" fill="white" />
<rect x="16" y="96" width="16" height="16" fill="white" />
<rect x="32" y="96" width="16" height="16" fill="white" />
<rect x="48" y="96" width="16" height="16" fill="white" />
<rect x="64" y="96" width="16" height="16" fill="white" />
<rect x="80" y="96" width="16" height="16" fill="white" />
<rect x="96" y="96" width="16" height="16" fill="white" />
<rect x="112" y="96" width="16" height="16" fill="black" />
<rect x="128" y="96" width="16" height="16" fill="white" />
<rect x="144" y="96" width="16" height="16" fill="white" />
<rect x="0" y="112" width="16" height="16" fill="white" />
<rect x="16" y="112" width="16" height="16" fill="white" />
<rect x="32" y="112" width="16" height="16" fill="white" />
<rect x="48" y="112" width="16" height="16" fill="white" />
<rect x="64" y="112" width="16" height="16" fill="black" />
<rect x="80" y="112" width="16" height="16" fill="black" />
<rect x="96" y="112" width="16" height="16" fill="white" />
<rect x="112" y="112" width="16" height="16" fill="white" />
<rect x="128" y="112" width="16" height="16" fill="black" />
<rect x="144" y="112" width="16" height="16" fill="black" />
<rect x="0" y="128" width="16" height="16" fill="white" />
<rect x="16" y="128" width="16" height="16" fill="white" />
<rect x="32" y="128" width="16" height="16" fill="white" />
<rect x="48" y="128" width="16" height="16" fill="black" />
<rect x="64" y="128" width="16" height="16" fill="black" />
<rect x="80" y="128" width="16" height="16" fill="black" />
<rect x="96" y="128" width="16" height="16" fill="white" />
<rect x="112" y="128" width="16" height="16" fill="white" />
<rect x="128" y="128" width="16" height="16" fill="white" />
<rect x="144" y="128" width="16" height="16" fill="white" />
<rect x="0" y="144" width="16" height="16" fill="black" /><rect x="16" y="144" width="16" height="16" fill="white" /><rect x="32" y="144" width="16" height="16" fill="white" /><rect x="48" y="144" width="16" height="16" fill="white" /><rect x="64" y="144" width="16" height="16" fill="white" /><rect x="80" y="144" width="16" height="16" fill="white" /><rect x="96" y="144" width="16" height="16" fill="white" /><rect x="112" y="144" width="16" height="16" fill="white" /><rect x="128" y="144" width="16" height="16" fill="white" /><rect x="144" y="144" width="16" height="16" fill="black" /></svg></g>
        </svg>