<svg xmlns="http://www.w3.org/2000/svg" width="64" height="64">
<g>
<!-- <svg xmlns="http://www.w3.org/2000/svg" width="64" height="64">
<animate attributeName="opacity" from="0" to="1" begin="0ms" dur="3000ms" fill="freeze" />
<animate attributeName="opacity" from="1" to="0" begin="3000ms" dur="3000ms" fill="freeze" />
<rect x="0" y="0" width="16" height="16" fill="white" />
<rect x="16" y="0" width="16" height="16" fill="white" />
<rect x="32" y="0" width="16" height="16" fill="white" />
<rect x="48" y="0" width="16" height="16" fill="white" />
<rect x="0" y="16" width="16" height="16" fill="white" />
<rect x="16" y="16" width="16" height="16" fill="white" />
<rect x="32" y="16" width="16" height="16" fill="black" />
<rect x="48" y="16" width="16" height="16" fill="white" />
<rect x="0" y="32" width="16" height="16" fill="white" />
<rect x="16" y="32" width="16" height="16" fill="white" />
<rect x="32" y="32" width="16" height="16" fill="black" />
<rect x="48" y="32" width="16" height="16" fill="white" />
<rect x="0" y="48" width="16" height="16" fill="black" />
<rect x="16" y="48" width="16" height="16" fill="black" />
<rect x="32" y="48" width="16" height="16" fill="white" />
<rect x="48" y="48" width="16" height="16" fill="white" />
</svg> -->
<svg xmlns="http://www.w3.org/2000/svg" width="64" height="64">
<animate attributeName="opacity" from="0" to="1" begin="3000ms" dur="3000ms" fill="freeze" />
<rect x="0" y="0" width="16" height="16" fill="white" />
<rect x="16" y="0" width="16" height="16" fill="black" />
<rect x="32" y="0" width="16" height="16" fill="black" />
<rect x="48" y="0" width="16" height="16" fill="black" />
<rect x="0" y="16" width="16" height="16" fill="white" />
<rect x="16" y="16" width="16" height="16" fill="white" />
<rect x="32" y="16" width="16" height="16" fill="white" />
<rect x="48" y="16" width="16" height="16" fill="black" />
<rect x="0" y="32" width="16" height="16" fill="black" />
<rect x="16" y="32" width="16" height="16" fill="white" />
<rect x="32" y="32" width="16" height="16" fill="black" />
<rect x="48" y="32" width="16" height="16" fill="white" />
<rect x="0" y="48" width="16" height="16" fill="white" />
<rect x="16" y="48" width="16" height="16" fill="white" />
<rect x="32" y="48" width="16" height="16" fill="white" />
<rect x="48" y="48" width="16" height="16" fill="white" />
</svg>
</g>
</svg>