<svg xmlns="http://www.w3.org/2000/svg" width="400" height="400">
<rect x="0" y="0" width="40" height="40" fill="black" />
<rect x="40" y="0" width="40" height="40" fill="white" />
<rect x="80" y="0" width="40" height="40" fill="white" />
<rect x="120" y="0" width="40" height="40" fill="black" />
<rect x="160" y="0" width="40" height="40" fill="black" />
<rect x="200" y="0" width="40" height="40" fill="white" />
<rect x="240" y="0" width="40" height="40" fill="white" />
<rect x="280" y="0" width="40" height="40" fill="white" />
<rect x="320" y="0" width="40" height="40" fill="black" />
<rect x="360" y="0" width="40" height="40" fill="black" />
<rect x="0" y="40" width="40" height="40" fill="white" />
<rect x="40" y="40" width="40" height="40" fill="white" />
<rect x="80" y="40" width="40" height="40" fill="white" />
<rect x="120" y="40" width="40" height="40" fill="white" />
<rect x="160" y="40" width="40" height="40" fill="black" />
<rect x="200" y="40" width="40" height="40" fill="black" />
<rect x="240" y="40" width="40" height="40" fill="white" />
<rect x="280" y="40" width="40" height="40" fill="white" />
<rect x="320" y="40" width="40" height="40" fill="black" />
<rect x="360" y="40" width="40" height="40" fill="white" />
<rect x="0" y="80" width="40" height="40" fill="white" />
<rect x="40" y="80" width="40" height="40" fill="white" />
<rect x="80" y="80" width="40" height="40" fill="white" />
<rect x="120" y="80" width="40" height="40" fill="white" />
<rect x="160" y="80" width="40" height="40" fill="white" />
<rect x="200" y="80" width="40" height="40" fill="white" />
<rect x="240" y="80" width="40" height="40" fill="white" />
<rect x="280" y="80" width="40" height="40" fill="white" />
<rect x="320" y="80" width="40" height="40" fill="white" />
<rect x="360" y="80" width="40" height="40" fill="white" />
<rect x="0" y="120" width="40" height="40" fill="white" />
<rect x="40" y="120" width="40" height="40" fill="white" />
<rect x="80" y="120" width="40" height="40" fill="white" />
<rect x="120" y="120" width="40" height="40" fill="black" />
<rect x="160" y="120" width="40" height="40" fill="black" />
<rect x="200" y="120" width="40" height="40" fill="white" />
<rect x="240" y="120" width="40" height="40" fill="white" />
<rect x="280" y="120" width="40" height="40" fill="black" />
<rect x="320" y="120" width="40" height="40" fill="white" />
<rect x="360" y="120" width="40" height="40" fill="black" />
<rect x="0" y="160" width="40" height="40" fill="white" />
<rect x="40" y="160" width="40" height="40" fill="white" />
<rect x="80" y="160" width="40" height="40" fill="black" />
<rect x="120" y="160" width="40" height="40" fill="black" />
<rect x="160" y="160" width="40" height="40" fill="white" />
<rect x="200" y="160" width="40" height="40" fill="white" />
<rect x="240" y="160" width="40" height="40" fill="white" />
<rect x="280" y="160" width="40" height="40" fill="white" />
<rect x="320" y="160" width="40" height="40" fill="white" />
<rect x="360" y="160" width="40" height="40" fill="black" />
<rect x="0" y="200" width="40" height="40" fill="white" />
<rect x="40" y="200" width="40" height="40" fill="white" />
<rect x="80" y="200" width="40" height="40" fill="white" />
<rect x="120" y="200" width="40" height="40" fill="white" />
<rect x="160" y="200" width="40" height="40" fill="white" />
<rect x="200" y="200" width="40" height="40" fill="white" />
<rect x="240" y="200" width="40" height="40" fill="white" />
<rect x="280" y="200" width="40" height="40" fill="black" />
<rect x="320" y="200" width="40" height="40" fill="white" />
<rect x="360" y="200" width="40" height="40" fill="black" />
<rect x="0" y="240" width="40" height="40" fill="white" />
<rect x="40" y="240" width="40" height="40" fill="white" />
<rect x="80" y="240" width="40" height="40" fill="white" />
<rect x="120" y="240" width="40" height="40" fill="white" />
<rect x="160" y="240" width="40" height="40" fill="white" />
<rect x="200" y="240" width="40" height="40" fill="white" />
<rect x="240" y="240" width="40" height="40" fill="black" />
<rect x="280" y="240" width="40" height="40" fill="black" />
<rect x="320" y="240" width="40" height="40" fill="white" />
<rect x="360" y="240" width="40" height="40" fill="black" />
<rect x="0" y="280" width="40" height="40" fill="white" />
<rect x="40" y="280" width="40" height="40" fill="white" />
<rect x="80" y="280" width="40" height="40" fill="black" />
<rect x="120" y="280" width="40" height="40" fill="white" />
<rect x="160" y="280" width="40" height="40" fill="black" />
<rect x="200" y="280" width="40" height="40" fill="black" />
<rect x="240" y="280" width="40" height="40" fill="white" />
<rect x="280" y="280" width="40" height="40" fill="black" />
<rect x="320" y="280" width="40" height="40" fill="white" />
<rect x="360" y="280" width="40" height="40" fill="black" />
<rect x="0" y="320" width="40" height="40" fill="white" />
<rect x="40" y="320" width="40" height="40" fill="white" />
<rect x="80" y="320" width="40" height="40" fill="black" />
<rect x="120" y="320" width="40" height="40" fill="white" />
<rect x="160" y="320" width="40" height="40" fill="black" />
<rect x="200" y="320" width="40" height="40" fill="black" />
<rect x="240" y="320" width="40" height="40" fill="white" />
<rect x="280" y="320" width="40" height="40" fill="white" />
<rect x="320" y="320" width="40" height="40" fill="white" />
<rect x="360" y="320" width="40" height="40" fill="black" />
<rect x="0" y="360" width="40" height="40" fill="white" />
<rect x="40" y="360" width="40" height="40" fill="black" />
<rect x="80" y="360" width="40" height="40" fill="white" />
<rect x="120" y="360" width="40" height="40" fill="white" />
<rect x="160" y="360" width="40" height="40" fill="white" />
<rect x="200" y="360" width="40" height="40" fill="black" />
<rect x="240" y="360" width="40" height="40" fill="black" />
<rect x="280" y="360" width="40" height="40" fill="white" />
<rect x="320" y="360" width="40" height="40" fill="white" />
<rect x="360" y="360" width="40" height="40" fill="black" />
</svg>