<svg xmlns="http://www.w3.org/2000/svg" width="100" height="100" version="1.1">
        <rect x="40" y="0" width="10" height="10" fill="black"/><rect x="60" y="0" width="10" height="10" fill="black"/><rect x="70" y="0" width="10" height="10" fill="black"/><rect x="0" y="10" width="10" height="10" fill="black"/><rect x="40" y="10" width="10" height="10" fill="black"/><rect x="70" y="10" width="10" height="10" fill="black"/><rect x="30" y="20" width="10" height="10" fill="black"/><rect x="80" y="20" width="10" height="10" fill="black"/><rect x="10" y="30" width="10" height="10" fill="black"/><rect x="20" y="30" width="10" height="10" fill="black"/><rect x="60" y="30" width="10" height="10" fill="black"/><rect x="90" y="30" width="10" height="10" fill="black"/><rect x="0" y="40" width="10" height="10" fill="black"/><rect x="10" y="40" width="10" height="10" fill="black"/><rect x="30" y="40" width="10" height="10" fill="black"/><rect x="40" y="40" width="10" height="10" fill="black"/><rect x="80" y="40" width="10" height="10" fill="black"/><rect x="90" y="40" width="10" height="10" fill="black"/><rect x="10" y="50" width="10" height="10" fill="black"/><rect x="20" y="50" width="10" height="10" fill="black"/><rect x="10" y="60" width="10" height="10" fill="black"/><rect x="30" y="60" width="10" height="10" fill="black"/><rect x="70" y="60" width="10" height="10" fill="black"/><rect x="80" y="60" width="10" height="10" fill="black"/><rect x="90" y="60" width="10" height="10" fill="black"/><rect x="10" y="70" width="10" height="10" fill="black"/><rect x="0" y="80" width="10" height="10" fill="black"/><rect x="20" y="80" width="10" height="10" fill="black"/><rect x="30" y="80" width="10" height="10" fill="black"/><rect x="60" y="80" width="10" height="10" fill="black"/><rect x="0" y="90" width="10" height="10" fill="black"/><rect x="70" y="90" width="10" height="10" fill="black"/></svg>